HIERARCHY
ROOT ui
{
	 OFFSET 0 0 0
	 CHANNELS 3 XPosition YPosition Z Position
	 EndSite
	 {
	 OFFSET 0 -1 0
	 }
}
ROOT li
{
	 OFFSET 0 0 0
	 CHANNELS 3 XPosition YPosition Z Position
	 EndSite
	 {
	 OFFSET 0 -1 0
	 }
}
ROOT ul
{
	 OFFSET 0 0 0
	 CHANNELS 3 XPosition YPosition Z Position
	 EndSite
	 {
	 OFFSET 0 -1 0
	 }
}
ROOT ll
{
	 OFFSET 0 0 0
	 CHANNELS 3 XPosition YPosition Z Position
	 EndSite
	 {
	 OFFSET 0 -1 0
	 }
}
ROOT tt
{
	 OFFSET 0 0 0
	 CHANNELS 3 XPosition YPosition Z Position
	 EndSite
	 {
	 OFFSET 0 -1 0
	 }
}
ROOT tb
{
	 OFFSET 0 0 0
	 CHANNELS 3 XPosition YPosition Z Position
	 EndSite
	 {
	 OFFSET 0 -1 0
	 }
}
ROOT td
{
	 OFFSET 0 0 0
	 CHANNELS 3 XPosition YPosition Z Position
	 EndSite
	 {
	 OFFSET 0 -1 0
	 }
}
ROOT v
{
	 OFFSET 0 0 0
	 CHANNELS 3 XPosition YPosition Z Position
	 EndSite
	 {
	 OFFSET 0 -1 0
	 }
}
ROOT bn
{
	 OFFSET 0 0 0
	 CHANNELS 3 XPosition YPosition Z Position
	 EndSite
	 {
	 OFFSET 0 -1 0
	 }
}
MOTION
Frames: 21
Frame Time: 0.002
-0.01151956844329834	0.002675605058670044	0		0.4974437561035156	-2.422961669921875	0		-1.13275	-0.16844775390625	0		-0.7464219360351563	-2.25721484375	0		3.114753173828125	-0.39630810546875	0		4.330205078125	-0.6208567504882813	0		5.563333984375	-0.4710566711425781	0		5.963580078125	0.42268838500976563	0		-0.28647781372070313	5.84275244140625	0		
0.041128582000732425	9.284359812736511E-4	0		0.5540879516601562	-2.42673486328125	0		-1.13403662109375	-0.16082054138183594	0		-0.7526856079101563	-2.24755078125	0		3.110657470703125	-0.36164260864257813	0		4.376171875	-0.57753759765625	0		5.5899912109375	-0.4715992431640625	0		5.9643544921875	0.4393312072753906	0		-0.2707760620117188	5.852263671875	0		
-0.010176566123962403	0.0019083919525146485	0		0.51482421875	-2.420837890625	0		-1.13737060546875	-0.16418072509765624	0		-0.6790438842773437	-2.25545068359375	0		3.157477294921875	-0.3433428955078125	0		4.3546640625	-0.605755859375	0		5.57765771484375	-0.47487893676757814	0		5.96392724609375	0.4229695129394531	0		-0.2861611633300781	5.843990234375	0		
0.03950469970703125	-0.0028234460353851317	0		0.54050146484375	-2.426400634765625	0		-1.136659912109375	-0.16456976318359376	0		-0.7662586669921875	-2.2452216796875	0		3.163342529296875	-0.3217632751464844	0		4.35942431640625	-0.5991676025390625	0		5.58629150390625	-0.48631747436523437	0		5.94664501953125	0.4237139587402344	0		-0.28545648193359374	5.84360205078125	0		
-0.04278907775878906	-0.005630396842956543	0		0.5142462158203125	-2.423601318359375	0		-1.131913818359375	-0.16198664855957032	0		-0.7155929565429687	-2.25396142578125	0		3.172249755859375	-0.29621286010742187	0		4.36421923828125	-0.58958984375	0		5.57788330078125	-0.5056485290527344	0		5.96130712890625	0.41422052001953125	0		-0.2847257385253906	5.84321240234375	0		
-0.017003665924072264	0.0018034319877624511	0		0.49403231811523435	-2.41484619140625	0		-1.1911337890625	-0.15495233154296875	0		-0.7967485961914063	-2.236774169921875	0		3.17509814453125	-0.2796275939941406	0		4.37705908203125	-0.5740784912109375	0		5.59766748046875	-0.49818881225585937	0		5.96720654296875	0.4377759094238281	0		-0.3180262145996094	5.83606201171875	0		
-0.012255348205566407	0.004385851860046387	0		0.5487102661132812	-2.42061767578125	0		-1.1183809814453125	-0.1518417205810547	0		-0.7570482177734374	-2.23943359375	0		3.220956298828125	-0.261350830078125	0		4.38071337890625	-0.5845121459960938	0		5.58333740234375	-0.5065006103515625	0		5.975943359375	0.4382983703613281	0		-0.268156494140625	5.85132958984375	0		
-0.033560306549072265	1.5405499935150147E-4	0		0.520415283203125	-2.4208046875	0		-1.1916295166015625	-0.14769940185546876	0		-0.756342529296875	-2.239814697265625	0		3.19479736328125	-0.24457240295410157	0		4.40047314453125	-0.57906591796875	0		5.57407861328125	-0.503856689453125	0		5.9766689453125	0.4378663635253906	0		-0.28145968627929685	5.84104345703125	0		
0.0381580696105957	-7.289400100708008E-4	0		0.5371397094726562	-2.417305419921875	0		-1.1129197998046876	-0.14962045288085937	0		-0.7306236572265625	-2.237366455078125	0		3.195656005859375	-0.22498687744140625	0		4.39415234375	-0.584442138671875	0		5.5735908203125	-0.5332825927734375	0		5.96334423828125	0.4305242004394531	0		-0.2806828308105469	5.8406630859375	0		
-0.04111056518554688	4.5717599987983706E-4	0		0.4948275451660156	-2.418386474609375	0		-1.175176513671875	-0.1465408172607422	0		-0.7699266967773437	-2.23745361328125	0		3.19142529296875	-0.21836758422851563	0		4.37293896484375	-0.5747171020507813	0		5.57530859375	-0.5337294311523437	0		5.9641845703125	0.4460753173828125	0		-0.2798916320800781	5.8402880859375	0		
0.0476028060913086	-0.0025370500087738036	0		0.5515012817382813	-2.42216162109375	0		-1.0884014892578124	-0.1405054931640625	0		-0.7572705688476562	-2.243900146484375	0		3.2052294921875	-0.207876220703125	0		4.39849755859375	-0.5983260498046875	0		5.57296923828125	-0.5431524658203125	0		5.97392041015625	0.44555703735351565	0		-0.2980526428222656	5.84405419921875	0		
-0.035617805480957034	0.002691899061203003	0		0.5002563171386719	-2.41516748046875	0		-1.1525821533203124	-0.12939366149902343	0		-0.76349267578125	-2.23420458984375	0		3.255052001953125	-0.19663949584960938	0		4.398513671875	-0.5587542114257813	0		5.567783203125	-0.5325572509765625	0		5.983662109375	0.4440344543457031	0		-0.2962267150878906	5.84268603515625	0		
0.0451380615234375	0.0017662819623947145	0		0.5509076538085937	-2.424888916015625	0		-1.0869063720703125	-0.14119332885742186	0		-0.7698225708007812	-2.24149951171875	0		3.239835205078125	-0.19293930053710937	0		4.39709130859375	-0.5831723022460937	0		5.575427734375	-0.5480535888671875	0		5.9754345703125	0.44463836669921875	0		-0.27739080810546873	5.83920556640625	0		
-0.033140575408935544	-0.006020493984222412	0		0.4956557312011719	-2.422848876953125	0		-1.1510526123046876	-0.13005979919433594	0		-0.7721010131835937	-2.24381298828125	0		3.230700927734375	-0.18027603149414062	0		4.38098583984375	-0.5654802856445312	0		5.56118310546875	-0.5503902587890624	0		5.971162109375	0.43621694946289064	0		-0.22740306091308593	5.85351220703125	0		
0.04268191909790039	-0.0028947079181671142	0		0.5503763427734375	-2.427582763671875	0		-1.1402664794921875	-0.13144866943359376	0		-0.7713471069335938	-2.2441376953125	0		3.20452978515625	-0.17548289489746094	0		4.39864208984375	-0.5840223388671875	0		5.55707177734375	-0.5367916259765625	0		5.9770234375	0.4437301330566406	0		-0.2756104736328125	5.83752783203125	0		
-0.03247212600708008	0.0013211909532546996	0		0.5012110900878907	-2.41856298828125	0		-1.141396240234375	-0.12374024200439453	0		-0.755596435546875	-2.2475576171875	0		3.209377685546875	-0.1709003448486328	0		4.38659716796875	-0.56334130859375	0		5.55868603515625	-0.5642249755859375	0		5.981904296875	0.4512596130371094	0		-0.2596123046875	5.84709765625	0		
0.04835919189453125	4.3362501263618467E-4	0		0.5559603881835937	-2.42427392578125	0		-1.0585457763671875	-0.12162081146240235	0		-0.7647488403320313	-2.23978515625	0		3.18425146484375	-0.16508956909179687	0		4.38222607421875	-0.5907032470703125	0		5.557490234375	-0.567625	0		5.98274658203125	0.45083026123046877	0		-0.292700927734375	5.842033203125	0		
-0.034812053680419924	-0.0022599968910217284	0		0.5257478637695312	-2.426359130859375	0		-1.065750244140625	-0.1288400421142578	0		-0.69301806640625	-2.250578857421875	0		3.185096435546875	-0.1654490661621094	0		4.38420654296875	-0.57109375	0		5.55039501953125	-0.5589664306640625	0		5.9885458984375	0.44238055419921873	0		-0.2577040710449219	5.84649658203125	0		
0.050065464019775394	-1.449339985847473E-4	0		0.5495078125	-2.433814208984375	0		-1.0648946533203125	-0.1290984649658203	0		-0.7572235107421875	-2.253375244140625	0		3.17095166015625	-0.1656815185546875	0		4.3909814453125	-0.5815007934570312	0		5.5512451171875	-0.5593462524414062	0		5.9844775390625	0.4510213623046875	0		-0.2577254943847656	5.8472294921875	0		
-0.02410042953491211	-0.003860748052597046	0		0.5053017883300781	-2.4367568359375	0		-1.0640360107421876	-0.1293359832763672	0		-0.673509033203125	-2.268218994140625	0		3.167838623046875	-0.16197122192382812	0		4.37493310546875	-0.567719970703125	0		5.5529248046875	-0.5837102661132813	0		5.98534716796875	0.45064898681640625	0		-0.2557597808837891	5.8459697265625	0		
0.05178116989135742	-6.383770108222962E-4	0		0.5351098022460937	-2.43721044921875	0		-1.1161678466796876	-0.12716500091552735	0		-0.733688232421875	-2.266997314453125	0		3.189697021484375	-0.16141688537597657	0		4.3886240234375	-0.5891296997070312	0		5.54077880859375	-0.5829473876953125	0		5.986203125	0.4493027954101563	0		-0.2387230682373047	5.85562451171875	0		
